<svg width="60" height="89" viewBox="0 0 60 89" fill="none" xmlns="http://www.w3.org/2000/svg">
<rect x="0.894531" y="0.13208" width="58.5639" height="88" rx="29" fill="#F9F8F8"/>
<rect x="0.894531" y="0.13208" width="58.5639" height="58" rx="29" fill="#BCD5FC"/>
<path d="M25.6678 38.1321V36.0721L30.4478 31.1521C31.5145 30.0321 32.0478 29.0987 32.0478 28.3521C32.0478 27.8054 31.8745 27.3654 31.5278 27.0321C31.1945 26.6987 30.7611 26.5321 30.2278 26.5321C29.1745 26.5321 28.3945 27.0787 27.8878 28.1721L25.5678 26.8121C26.0078 25.8521 26.6411 25.1187 27.4678 24.6121C28.2945 24.1054 29.2011 23.8521 30.1878 23.8521C31.4545 23.8521 32.5411 24.2521 33.4478 25.0521C34.3545 25.8387 34.8078 26.9054 34.8078 28.2521C34.8078 29.7054 34.0411 31.1987 32.5078 32.7321L29.7678 35.4721H35.0278V38.1321H25.6678Z" fill="white"/>
</svg>
